<?xml version="1.0" encoding="utf-8"?>
<!-- Generator: Adobe Illustrator 21.0.0, SVG Export Plug-In . SVG Version: 6.00 Build 0)  -->
<svg version="1.1" id="Layer_1" xmlns="http://www.w3.org/2000/svg" xmlns:xlink="http://www.w3.org/1999/xlink" x="0px" y="0px"
	 viewBox="0 0 67 67" style="enable-background:new 0 0 67 67;" xml:space="preserve">
<style type="text/css">
	.st0{fill:#598DCA;}
</style>
<g>
	<path class="st0" d="M46,34.1c0-2.1,0-4.3,0-6.7c-0.5,0.4-0.7,0.6-0.9,0.8c-3.1,2.7-6.3,5.3-9.4,8c-1,0.8-3.1,0.8-4.1,0
		c-3.2-2.7-6.3-5.4-9.5-8c-0.2-0.2-0.4-0.6-0.9-0.5c0,4.6,0,9.1,0,13.6c0,0.9,0.5,0.9,1.1,0.9c7.6,0,15.2,0,22.8,0
		c0.8,0,1-0.3,1-1.1C45.9,38.8,46,36.4,46,34.1z"/>
	<path class="st0" d="M33.5,0.7C15.4,0.7,0.7,15.4,0.7,33.5c0,18.1,14.7,32.8,32.8,32.8c18.1,0,32.8-14.7,32.8-32.8
		C66.3,15.4,51.6,0.7,33.5,0.7z M49.1,41.4c0,2.4-1.5,3.9-3.9,3.9c-3.9,0-7.8,0-11.6,0c0,0,0,0,0,0c-3.8,0-7.5,0-11.3,0
		c-2.9,0-4.3-1.4-4.3-4.3c0-5.1,0-10.2,0-15.2c0-2.7,1.4-4.1,4.1-4.1c7.6,0,15.3,0,22.9,0c2.6,0,4.1,1.4,4.1,4
		C49.1,30.9,49.1,36.2,49.1,41.4z"/>
	<path class="st0" d="M34.2,33.1c3-2.5,6-5.1,8.9-7.6c0.2-0.2,0.6-0.3,0.6-0.7c-6.8,0-13.6,0-20.6,0c3.4,2.9,6.6,5.6,9.8,8.4
		C33.4,33.7,33.7,33.5,34.2,33.1z"/>
</g>
</svg>
