<?xml version="1.0" encoding="utf-8"?>
<!-- Generator: Adobe Illustrator 21.0.0, SVG Export Plug-In . SVG Version: 6.00 Build 0)  -->
<svg version="1.1" id="Layer_1" xmlns="http://www.w3.org/2000/svg" xmlns:xlink="http://www.w3.org/1999/xlink" x="0px" y="0px"
	 viewBox="0 0 67 67" style="enable-background:new 0 0 67 67;" xml:space="preserve">
<style type="text/css">
	.st0{fill:#4B97CB;}
</style>
<g>
	<path class="st0" d="M33.5,0.6C15.3,0.6,0.6,15.3,0.6,33.7c0,18,14.8,32.7,32.9,32.7c18.1,0,32.9-14.7,32.9-32.8
		C66.4,15.3,51.7,0.6,33.5,0.6z M52,52c-1.3,1.3-3.2,1.2-4.6-0.1c-2.1-2.1-4.2-4.2-6.3-6.3c-0.4-0.4-0.7-0.4-1.2-0.1
		c-9.3,5.9-22,1.2-25.2-9.4c-0.5-1.6-0.8-3.3-0.7-5.1c-0.1-7.9,5.5-14.6,12.8-16.5c9.5-2.4,19.3,3.9,20.9,13.6
		c0.7,4.3-0.1,8.3-2.4,12c-0.2,0.4-0.2,0.5,0.1,0.8c2.2,2.1,4.3,4.3,6.5,6.4C53.2,48.8,53.3,50.7,52,52z"/>
	<path class="st0" d="M30.9,19.8c-6.1,0.1-11.2,5.2-11.1,11.2c0,6.3,5.1,11.3,11.3,11.3c6.4-0.1,11.3-5.1,11.2-11.4
		C42.2,24.7,37.1,19.7,30.9,19.8z"/>
</g>
</svg>
