<?xml version="1.0" encoding="utf-8"?>
<!-- Generator: Adobe Illustrator 21.0.0, SVG Export Plug-In . SVG Version: 6.00 Build 0)  -->
<svg version="1.1" id="Layer_1" xmlns="http://www.w3.org/2000/svg" xmlns:xlink="http://www.w3.org/1999/xlink" x="0px" y="0px"
	 viewBox="0 0 67 67" style="enable-background:new 0 0 67 67;" xml:space="preserve">
<style type="text/css">
	.st0{fill:none;}
	.st1{fill:#598DCA;}
</style>
<g>
	<path class="st0" d="M48.9,23.2c-1.9,0.7-2.2,0.6-1.3-0.4c0.7-0.7,1.6-2.1,1.6-2.5c0-0.1-0.3,0-0.7,0.3c-0.4,0.2-1.3,0.6-2,0.8
		l-1.2,0.4L44.2,21c-0.6-0.4-1.5-0.9-1.9-1c-1.2-0.3-3-0.3-4,0.1c-2.9,1-4.7,3.7-4.5,6.7l0.1,1.1l-1.1-0.1
		c-4.2-0.5-7.8-2.3-10.9-5.4l-1.5-1.5L20,22c-0.8,2.5-0.3,5.1,1.4,6.9c0.9,1,0.7,1.1-0.9,0.5c-0.6-0.2-1-0.3-1.1-0.3
		c-0.2,0.2,0.4,2.3,0.8,3.1c0.6,1.2,1.8,2.3,3.1,3l1.1,0.5h-1.3c-1.3,0-1.3,0-1.2,0.5c0.5,1.5,2.3,3.1,4.3,3.8l1.4,0.5l-1.2,0.7
		c-1.8,1.1-4,1.7-6.1,1.7c-1,0-1.9,0.1-1.9,0.2c0,0.2,2.8,1.5,4.4,2c4.9,1.5,10.7,0.9,15-1.7c3.1-1.8,6.2-5.5,7.6-9
		c0.8-1.9,1.6-5.3,1.6-7c0-1.1,0.1-1.2,1.4-2.5c0.8-0.7,1.5-1.6,1.6-1.8C50.1,22.8,50.1,22.8,48.9,23.2z"/>
	<path class="st1" d="M33.5,0C15.4,0,0.7,14.7,0.7,32.8s14.7,32.8,32.8,32.8s32.8-14.7,32.8-32.8C66.4,14.7,51.7,0,33.5,0z
		 M49.9,23.3c-0.1,0.2-0.8,1-1.6,1.8c-1.3,1.3-1.4,1.4-1.4,2.5c0,1.6-0.8,5.1-1.6,7c-1.4,3.5-4.5,7.2-7.6,9
		c-4.4,2.6-10.2,3.2-15,1.7c-1.6-0.5-4.4-1.8-4.4-2c0-0.1,0.8-0.2,1.9-0.2c2.2,0,4.3-0.6,6.1-1.7l1.2-0.7l-1.4-0.5
		c-2-0.7-3.8-2.3-4.3-3.8c-0.1-0.5-0.1-0.5,1.2-0.5h1.3l-1.1-0.5c-1.3-0.7-2.5-1.8-3.1-3c-0.4-0.8-1-2.9-0.8-3.1
		c0-0.1,0.5,0.1,1.1,0.3c1.6,0.6,1.8,0.4,0.9-0.5c-1.7-1.8-2.2-4.4-1.4-6.9l0.4-1.1l1.5,1.5c3.1,3,6.7,4.8,10.9,5.4l1.1,0.1L33.7,27
		c-0.2-2.9,1.6-5.6,4.5-6.7c1.1-0.4,2.8-0.4,4-0.1c0.5,0.1,1.3,0.6,1.9,1l1.1,0.8l1.2-0.4c0.7-0.2,1.6-0.6,2-0.8
		c0.4-0.2,0.7-0.3,0.7-0.3c0,0.4-0.8,1.7-1.6,2.5c-1,1-0.7,1.1,1.3,0.4C50.1,22.8,50.1,22.8,49.9,23.3z"/>
</g>
</svg>
